<svg aria-hidden="true" style="position: absolute; width: 0; height: 0; overflow: hidden;" version="1.1" xmlns="http://www.w3.org/2000/svg" xmlns:xlink="http://www.w3.org/1999/xlink">
<defs>
<symbol id="icon-facebook" viewBox="0 0 32 32">
<title>facebook</title>
<path fill="#fff" style="fill: var(--color1, #fff)" d="M16 0c8.837 0 16 7.164 16 16 0 8.837-7.163 16-16 16s-16-7.163-16-16c0-8.836 7.163-16 16-16z"></path>
<path  d="M17.948 11.015h2.062v-3.046h-2.424v0.011c-2.937 0.104-3.539 1.755-3.592 3.489h-0.006v1.521h-2v2.983h2v7.996h3.014v-7.996h2.469l0.477-2.983h-2.945v-0.919c0-0.586 0.39-1.056 0.945-1.056z"></path>
</symbol>
<symbol id="icon-google-plus" viewBox="0 0 32 32">
<title>google-plus</title>
<path fill="#fff" style="fill: var(--color1, #fff)" d="M16 0c8.8 0 16 7.2 16 16s-7.2 16-16 16-16-7.2-16-16 7.2-16 16-16z"></path>
<path  d="M24.1 13.3v1.8h1.8v1.8h-1.8v1.8h-1.8v-1.8h-1.8v-1.8h1.8v-1.8zM7.9 20.5c-2.4-2.4-2.4-6.6 0.1-9 1.8-1.8 4.4-2.2 6.7-1.3l0.9 0.5 1 0.7-1.6 1.6-0.6-0.4c-1.4-0.9-3.4-0.7-4.7 0.6-1.5 1.5-1.6 4.2 0 5.8 1.5 1.6 4.2 1.6 5.6 0 0.4-0.4 0.8-1 0.9-1.6v-0.2h-3.6v-2h5.7l0.1 0.5v1.4c-0.1 1.3-0.6 2.6-1.5 3.5-2.4 2.3-6.6 2.3-9-0.1z"></path>
</symbol>
<symbol id="icon-linkedin" viewBox="0 0 32 32">
<title>linkedin</title>
<path fill="#fff" style="fill: var(--color1, #fff)" d="M16 0c8.837 0 16 7.164 16 16s-7.163 16-16 16-16-7.164-16-16 7.163-16 16-16z"></path>
<path  d="M9.016 21.984h2.996v-9.986h-2.996v9.986zM20.688 11.652c-1.454 0-2.755 0.531-3.678 1.703v-1.39h-3.007v10.019h3.007v-5.418c0-1.145 1.049-2.262 2.363-2.262s1.638 1.117 1.638 2.234v5.445h2.996v-5.668c-0-3.937-1.864-4.663-3.319-4.663zM10.5 11c0.828 0 1.5-0.672 1.5-1.5s-0.672-1.5-1.5-1.5-1.5 0.672-1.5 1.5 0.672 1.5 1.5 1.5z"></path>
</symbol>
<symbol id="icon-twitter" viewBox="0 0 32 32">
<title>twitter</title>
<path fill="#fff" style="fill: var(--color1, #fff)" d="M16 0c8.837 0 16 7.164 16 16 0 8.837-7.163 16-16 16s-16-7.163-16-16c0-8.836 7.163-16 16-16z"></path>
<path d="M26.003 10.779c-0.699 0.302-1.451 0.505-2.24 0.597 0.806-0.469 1.424-1.21 1.715-2.095-0.714 0.419-1.544 0.739-2.427 0.911l-0.050 0.008c-0.711-0.735-1.724-1.194-2.846-1.194-2.152 0-3.898 1.693-3.898 3.783 0 0.297 0.034 0.586 0.101 0.863-3.24-0.158-6.114-1.665-8.036-3.954-0.332 0.541-0.528 1.197-0.528 1.898 0 0.001 0 0.003 0 0.004v-0c0 1.312 0.688 2.472 1.734 3.149-0.64-0.020-1.24-0.189-1.767-0.474v0.048c0 1.834 1.344 3.363 3.128 3.711-0.308 0.084-0.662 0.133-1.027 0.133v0c-0.251 0-0.495-0.023-0.733-0.068 0.496 1.504 1.936 2.598 3.643 2.628-1.335 1.016-3.016 1.62-4.843 1.62-0.315 0-0.625-0.018-0.931-0.053 1.727 1.074 3.775 1.701 5.978 1.701 7.172 0 11.094-5.768 11.094-10.768l-0.011-0.49c0.764-0.54 1.409-1.189 1.927-1.933l0.017-0.025z"></path>
</symbol>
</defs>
</svg>
